<svg width="122" height="32" viewBox="0 0 122 32" fill="none" xmlns="http://www.w3.org/2000/svg">
<path fill-rule="evenodd" clip-rule="evenodd" d="M32.638 12.552C32.452 12.803 32.1756 13.1856 31.7728 13.7619C31.1665 14.6296 30.4334 15.4256 29.8281 15.9443V15.9446C28.949 16.6048 27.8569 16.996 26.6729 16.996C25.4889 16.996 24.3968 16.6048 23.5177 15.9446V15.9443C22.9124 15.4256 22.1793 14.6296 21.573 13.7619C21.1702 13.1856 20.8938 12.803 20.7078 12.552C18.9912 10.1488 16.1785 8.58203 13.0002 8.58203V10.6855C15.5023 10.6855 17.7173 11.9334 19.0478 13.8408C19.1596 13.991 19.297 14.1917 19.4531 14.4199L19.4532 14.4199C19.7253 14.8176 20.0547 15.299 20.4063 15.7427C20.9364 16.4118 21.421 16.8966 21.421 16.8966L21.4215 16.8965C22.7574 18.2559 24.6167 19.0995 26.6729 19.0995C28.7291 19.0995 30.5884 18.2559 31.9243 16.8965L31.9248 16.8966C31.9248 16.8966 32.4094 16.4118 32.9395 15.7427C33.291 15.299 33.6205 14.8176 33.8926 14.4199L33.8926 14.4199C34.0488 14.1917 34.1862 13.991 34.298 13.8408C35.6285 11.9334 37.8434 10.6855 40.3455 10.6855V8.58203C37.1673 8.58203 34.3546 10.1488 32.638 12.552ZM34.6452 16.844C35.1318 16.1403 35.771 15.2159 36.4654 14.4988C37.4268 13.4481 38.8091 12.7888 40.3457 12.7887V14.8922C39.4112 14.8922 38.5713 15.2984 37.9939 15.9439C37.9939 15.9439 37.6024 16.385 37.2693 16.8963C36.9362 17.4076 35.7399 19.0863 34.941 19.8292H34.941C32.8409 21.9747 29.9124 23.3061 26.673 23.3061C23.4335 23.3061 20.505 21.9747 18.4049 19.8292H18.4049C17.606 19.0863 16.4096 17.4076 16.0766 16.8963C15.7436 16.385 15.352 15.9439 15.352 15.9439C14.7745 15.2984 13.9347 14.8922 13.0002 14.8922V12.7887C14.537 12.7887 15.9192 13.4481 16.8806 14.4988C17.5751 15.2159 18.2144 16.1405 18.701 16.8444C18.7832 16.9631 18.8609 17.0756 18.9339 17.1797C19.2979 17.6993 19.6174 18.0474 19.6174 18.0474C21.3506 19.984 23.8695 21.2027 26.673 21.2027C29.4765 21.2027 31.9954 19.984 33.7286 18.0474C33.7286 18.0474 34.0481 17.6993 34.4121 17.1797C34.4851 17.0756 34.5629 16.963 34.6451 16.8442L34.6452 16.844ZM39.8899 17.1007C39.8946 17.0983 39.8992 17.0954 39.9039 17.093L39.9041 17.0939C40.0385 17.0316 40.1877 16.9958 40.3457 16.9958V19.0993H38.1963C38.2698 18.9805 38.4745 18.6841 38.7173 18.3578C38.7691 18.2881 38.8215 18.2149 38.8751 18.1398C39.1155 17.8037 39.3807 17.4328 39.73 17.196C39.7801 17.1596 39.8336 17.1279 39.8899 17.1007ZM13.4561 17.1006C13.5124 17.1278 13.5659 17.1596 13.616 17.1959C13.9652 17.4326 14.2303 17.8034 14.4707 18.1394L14.4707 18.1394C14.5244 18.2145 14.5769 18.2879 14.6288 18.3577C14.8715 18.684 15.0763 18.9803 15.1498 19.0992H13.0004V16.9957C13.1583 16.9957 13.3076 17.0314 13.442 17.0938L13.4421 17.0929C13.4447 17.0942 13.4471 17.0956 13.4496 17.097L13.4561 17.1006ZM16.8074 21.2028H13.0002V23.3063H19.3845C18.4413 22.7109 17.576 22.0037 16.8074 21.2028ZM40.3457 23.3063H33.9615C34.9046 22.7109 35.7699 22.0037 36.5386 21.2028H40.3457V23.3063Z" fill="#00DAE8"/>
<path d="M80.9786 18.1516C81.0971 19.2697 82.1043 21.1866 85.0289 21.1866C87.5775 21.1866 88.8023 19.5493 88.8023 17.9519C88.8023 16.5143 87.8346 15.3362 85.9177 14.9368L84.5348 14.6373C84.0012 14.5375 83.6457 14.238 83.6457 13.7588C83.6457 13.1997 84.1987 12.7803 84.8904 12.7803C85.6906 12.7803 86.1292 13.1669 86.3407 13.6H88.6798L88.6838 13.599C88.5653 12.5407 87.637 10.7637 84.8703 10.7637C82.7765 10.7637 81.235 12.2213 81.235 13.9784C81.235 15.3562 82.0847 16.4943 83.9617 16.9136L85.246 17.2131C85.9967 17.3728 86.2933 17.7323 86.2933 18.1716C86.2933 18.6907 85.8781 19.15 85.009 19.15C84.1152 19.15 83.5701 18.7128 83.345 18.151H80.981L80.9786 18.1516Z" fill="white"/>
<path fill-rule="evenodd" clip-rule="evenodd" d="M96.9893 18.151C96.6057 18.6185 96.0254 18.9104 95.1844 18.9104C93.88 18.9104 92.7933 17.9719 92.7342 16.674H99.6888C99.6888 16.667 99.6902 16.649 99.6922 16.6221L99.6949 16.5854L99.695 16.5846L99.695 16.5842C99.706 16.438 99.7284 16.1409 99.7284 15.8553C99.7284 12.7005 97.9305 10.7637 94.9273 10.7637C92.4377 10.7637 90.1457 12.8003 90.1457 15.9352C90.1457 19.2498 92.4973 21.1866 95.1643 21.1866C97.5179 21.1866 99.0482 19.8129 99.5664 18.151H96.9893ZM92.7933 14.857C92.8529 13.9585 93.6036 12.9202 94.9668 12.9202C96.4686 12.9202 97.1008 13.8786 97.1402 14.857H92.7933Z" fill="white"/>
<path d="M101.179 18.1511H103.543C103.768 18.7129 104.313 19.1501 105.207 19.1501C106.076 19.1501 106.491 18.6908 106.491 18.1717C106.491 17.7324 106.195 17.3729 105.444 17.2132L104.16 16.9137C102.283 16.4944 101.433 15.3563 101.433 13.9785C101.433 12.2214 102.974 10.7638 105.069 10.7638C107.835 10.7638 108.764 12.5408 108.882 13.5991L108.878 13.6001H106.539C106.328 13.167 105.889 12.7804 105.088 12.7804C104.397 12.7804 103.843 13.1998 103.843 13.7589C103.843 14.2381 104.199 14.5376 104.733 14.6374L106.116 14.9369C108.032 15.3364 109.001 16.5144 109.001 17.952C109.001 19.5494 107.775 21.1867 105.227 21.1867C102.303 21.1867 101.295 19.2698 101.176 18.1517L101.179 18.1511Z" fill="white"/>
<path d="M78.9946 10.7638H76.367V21.1867H78.9946V10.7638Z" fill="white"/>
<path fill-rule="evenodd" clip-rule="evenodd" d="M69.1949 10.7638C66.2907 10.7638 64.0972 12.9402 64.0972 15.9752C64.0972 18.9902 66.2907 21.1867 69.1949 21.1867C72.0995 21.1867 74.2925 18.9902 74.2925 15.9752C74.2924 12.9402 72.0995 10.7638 69.1949 10.7638ZM69.1949 18.7706C67.9105 18.7706 66.7253 17.8123 66.7253 15.9752C66.7253 14.1183 67.9106 13.1798 69.1949 13.1798C70.4791 13.1798 71.6649 14.1182 71.6649 15.9752C71.6649 17.8322 70.4791 18.7706 69.1949 18.7706Z" fill="white"/>
<path d="M49.9554 15.1365V21.1729H47.3279V11.0632H48.6392C49.3009 11.0632 49.837 11.5996 49.837 12.2612C50.3706 11.3028 51.6154 10.7836 52.6821 10.7836C54.0059 10.7836 55.0732 11.3627 55.5673 12.421C56.3374 11.2229 57.3652 10.7836 58.6495 10.7836C60.4474 10.7836 62.1663 11.8819 62.1663 14.5175V21.173H59.6177V15.0567C59.6177 13.9984 59.1036 13.1997 57.8983 13.1997C56.772 13.1997 56.1004 14.0783 56.1004 15.1365V21.173H53.4923V15.0567C53.4923 13.9984 52.9591 13.1997 51.7734 13.1997C50.6276 13.1997 49.9554 14.0583 49.9554 15.1365Z" fill="white"/>
</svg>
